<?xml version="1.0" encoding="utf-8"?>
<!-- Generator: Adobe Illustrator 26.3.1, SVG Export Plug-In . SVG Version: 6.00 Build 0)  -->
<svg version="1.1" id="Layer_1" xmlns="http://www.w3.org/2000/svg" xmlns:xlink="http://www.w3.org/1999/xlink" x="0px" y="0px"
	 width="154px" height="48px" viewBox="0 0 154 48" style="enable-background:new 0 0 154 48;" xml:space="preserve">
<style type="text/css">
	.st0{fill:#FFFFFF;}
	.st1{font-family:'RedHatDisplay-Black';}
	.st2{font-size:20px;}
	.st3{font-family:'RedHatDisplay-Medium';}
	.st4{fill:#EE0000;}
</style>
<text transform="matrix(1 0 0 1 81 42)" class="st0 st1 st2">Design</text>
<text transform="matrix(1 0 0 1 81 20)" class="st0 st3 st2">Red Hat</text>
<path class="st0" d="M64,6h1v36h-1V6z"/>
<path d="M39.3,21.5c0,0.3,0.1,0.6,0.1,0.9c0,3.7-4.5,4.4-7.6,4.4c-12.1,0-21.2-7.5-21.2-9.9c0-0.2,0-0.3,0.1-0.5l-0.9,2.3
	c-0.2,0.6-0.4,1.2-0.4,1.8c0,4.5,10.2,11.4,21.9,11.4c5.2,0,9.1-2,9.1-5.5c-0.1-0.9-0.2-1.7-0.4-2.5L39.3,21.5z"/>
<path class="st4" d="M31.8,26.8c3.1,0,7.7-0.6,7.7-4.4c0-0.3,0-0.6-0.1-0.9l-1.8-8.1c-0.4-1.8-0.8-2.6-3.9-4.1C31.1,8,25.9,6,24.3,6
	c-1.5,0-1.9,1.9-3.6,1.9c-1.7,0-2.9-1.4-4.5-1.4c-1.5,0-2.5,1-3.2,3.1c0,0-2.1,5.9-2.4,6.8c0,0.2-0.1,0.3-0.1,0.5
	C10.5,19.2,19.6,26.7,31.8,26.8 M39.9,23.9c0.2,0.8,0.4,1.7,0.4,2.5c0,3.5-3.9,5.4-9.1,5.4C19.5,31.9,9.3,25,9.3,20.5
	c0-0.6,0.1-1.2,0.4-1.8c-4.2,0.2-9.6,1-9.6,5.8C0,32.3,18.6,42,33.4,42c11.3,0,14.2-5.1,14.2-9.2C47.6,29.7,44.8,26.1,39.9,23.9"/>
</svg>
