<svg xmlns="http://www.w3.org/2000/svg" width="29" height="20" viewBox="0 0 29 20">
  <path id="Quote" d="M12.958,17.5H8.526a6.87,6.87,0,0,1,6.584-5.75.875.875,0,1,0,0-1.75A8.565,8.565,0,0,0,6.5,18.5V29.125A.86.86,0,0,0,7.386,30H18.529a.86.86,0,0,0,.886-.875V24A6.391,6.391,0,0,0,12.958,17.5Zm16.081,0H24.607a6.87,6.87,0,0,1,6.584-5.75.875.875,0,1,0,0-1.75,8.565,8.565,0,0,0-8.61,8.5V29.125a.86.86,0,0,0,.886.875H34.61a.86.86,0,0,0,.886-.875V24A6.315,6.315,0,0,0,29.038,17.5Z" transform="translate(-6.5 -10)" fill="#e00"/>
</svg>
