<svg xmlns="http://www.w3.org/2000/svg" width="154" height="48"><g fill="#fff" font-size="20"><text transform="translate(81 42)" font-family="RedHatDisplay-Bold, Red Hat Display" font-weight="700"><tspan x="0" y="0">Design</tspan></text><text data-name="Red Hat" transform="translate(81 20)" font-family="RedHatDisplay-Medium, Red Hat Display" font-weight="500"><tspan x="0" y="0">Red Hat</tspan></text></g><path fill="#fff" d="M64 6h1v36h-1z"/><path d="M39.325 21.525a4.883 4.883 0 0 1 .075.85c0 3.725-4.525 4.375-7.65 4.375-12.15 0-21.225-7.55-21.225-9.875a1.461 1.461 0 0 1 .05-.475l-.925 2.275a4.586 4.586 0 0 0-.375 1.825c0 4.525 10.25 11.375 21.925 11.375 5.175 0 9.1-1.95 9.1-5.45a12.6 12.6 0 0 0-.425-2.525Z"/><path data-name="Path" d="M31.75 26.75c3.125 0 7.65-.65 7.65-4.375a4.882 4.882 0 0 0-.075-.85l-1.85-8.1c-.425-1.775-.8-2.6-3.925-4.15C31.125 8.025 25.85 6 24.275 6c-1.475 0-1.9 1.875-3.625 1.875-1.675 0-2.9-1.4-4.475-1.4-1.5 0-2.475 1.025-3.225 3.125 0 0-2.1 5.925-2.375 6.8a1.538 1.538 0 0 0-.05.475c-.025 2.3 9.05 9.85 21.225 9.875m8.125-2.85a12.9 12.9 0 0 1 .425 2.525c0 3.5-3.925 5.45-9.1 5.45-11.7 0-21.925-6.85-21.925-11.375a4.586 4.586 0 0 1 .375-1.825c-4.2.2-9.65.95-9.65 5.75C0 32.3 18.65 42 33.4 42c11.325 0 14.175-5.125 14.175-9.175 0-3.175-2.75-6.775-7.7-8.925" fill="#e00"/></svg>