<svg xmlns="http://www.w3.org/2000/svg" width="254.043" height="224"><g transform="translate(-177.934 -66.4)"><path fill="#e00" d="M186.215 165.274c-1.476-15.075-2.249-31.327 7.274-43.407 10.612-13.426 29.8-18.911 47.227-16.724 20.556 2.591 40.726 14.469 60.755 9.321 14.512-3.735 24.878-15.512 36.053-25.136 10.858-9.287 23.859-17.195 38.372-18.507 14.512-1.279 30.5 5.619 35.772 18.608 3.584 8.85 1.827 18.81-.211 28.1-5.728 26.112-13.353 51.954-25.089 76.181-4.146 8.614-8.89 17.195-10.19 26.583-2.319 16.993 6.817 35.331-.843 50.81-4.814 9.724-15.5 15.815-26.495 18.036s-22.384 1.11-33.523-.236c-19.748-2.355-39.918-5.518-57.136-15.041-14.69-8.113-65.329-39.943-71.966-108.588z" data-name="Path 11074" opacity=".15"/><path fill="#e00" d="M263.591 221.05h160.656v59.842H263.591z" data-name="Rectangle 2844" opacity=".15"/><path fill="#fff" d="M255.72 110.153h157.177v21.646H255.72z" data-name="Rectangle 2845"/><path fill="#e00" d="M177.934 142.365h161.675v91.08H177.934z" data-name="Rectangle 2846" opacity=".15"/><circle cx="8.609" cy="8.609" r="8.609" fill="#e00" data-name="Ellipse 47" transform="translate(228.382 79.05)"/><path fill="#fff" d="M185.05 138.674h160.094v88.129H185.05z" data-name="Rectangle 2847"/><path fill="#e00" d="M345.846 227.502h-161.5v-89.534h161.5zm-160.094-1.406H344.44v-86.722H185.752z" data-name="Path 11075"/><path fill="#e00" d="M262.361 106.928h160.234v18.624H262.361z" data-name="Rectangle 2848"/><path fill="#fff" d="M335.696 116.615h-66.061a.7.7 0 110-1.392h66.061a.7.7 0 110 1.392z" data-name="Path 11076"/><circle cx="2.003" cy="2.003" r="2.003" fill="#fff" data-name="Ellipse 48" transform="translate(413.108 114.554)"/><circle cx="2.003" cy="2.003" r="2.003" fill="#fff" data-name="Ellipse 49" transform="translate(406.572 114.52)"/><circle cx="4.814" cy="4.814" r="4.814" fill="#fff" stroke="#e00" stroke-miterlimit="10" stroke-width="2" data-name="Ellipse 50" transform="translate(311.169 162.837)"/><circle cx="10.12" cy="10.12" r="10.12" fill="#e00" stroke="#e00" stroke-miterlimit="10" stroke-width="2.13" data-name="Ellipse 51" transform="translate(299.893 178.435)"/><circle cx="12.755" cy="12.755" r="12.755" fill="#fff" stroke="#e00" stroke-miterlimit="10" stroke-width="2" data-name="Ellipse 52" transform="translate(285.623 168.298)"/><path fill="#e00" d="M265.489 180.457h-59.072a.703.703 0 110-1.406h59.069a.703.703 0 110 1.406z" data-name="Path 11077"/><path fill="#e00" d="M265.489 192.442h-59.072a.703.703 0 110-1.406h59.069a.703.703 0 110 1.406z" data-name="Path 11078"/><path fill="#fff" d="M270.619 209.805h160.656v64.059H270.619z" data-name="Rectangle 2849"/><path fill="#e00" d="M431.977 274.566H269.916v-65.464h162.061zm-160.656-1.406h159.25v-62.652H271.322z" data-name="Path 11079"/><path fill="#e00" d="M348.946 236.377h-51.8a.703.703 0 110-1.406h51.8a.703.703 0 010 1.406z" data-name="Path 11080"/><circle cx="7.414" cy="7.414" r="7.414" fill="#fff" data-name="Ellipse 53" transform="translate(378.425 228.711)"/><path fill="#e00" d="M385.84 244.225a8.117 8.117 0 118.117-8.117 8.117 8.117 0 01-8.117 8.117zm0-14.829a6.712 6.712 0 106.712 6.712 6.712 6.712 0 00-6.712-6.711z" data-name="Path 11081"/><circle cx="12.896" cy="12.896" r="12.896" fill="#e00" data-name="Ellipse 54" transform="translate(382.256 230.457)"/><path fill="#fff" d="M383.415 254.557a4.993 4.993 0 004.814-8.75 4.993 4.993 0 10-4.814 8.75z" data-name="Path 11082"/><path fill="#e00" d="M385.822 255.865a5.7 5.7 0 111.588-.227 5.7 5.7 0 01-1.588.227zm.008-9.993a4.288 4.288 0 00-2.076 8.049 4.29 4.29 0 102.076-8.049z" data-name="Path 11083"/><rect width="23.93" height="9.909" fill="#e00" data-name="Rectangle 2850" rx="2" transform="translate(296.411 244.036)"/><path fill="#fff" d="M326.42 244.759h22.524v8.504H326.42z" data-name="Rectangle 2851"/><path fill="#e00" d="M348.944 253.945h-22.527a.7.7 0 01-.7-.7v-8.5a.7.7 0 01.7-.7h22.524a.7.7 0 01.7.7v8.5a.7.7 0 01-.7.7zm-21.821-1.409h21.119v-7.1h-21.119z" data-name="Path 11084"/><circle cx="9.031" cy="9.031" r="9.031" fill="#fff" data-name="Ellipse 55" transform="translate(213.694 246.631)"/><path fill="#e00" d="M219.805 141.651a.7.7 0 01-.7-.7v-17.958a7.739 7.739 0 017.731-7.731h35.526a.703.703 0 110 1.406h-35.526a6.332 6.332 0 00-6.325 6.325v17.956a.7.7 0 01-.706.702z" data-name="Path 11085"/><path fill="#e00" d="M387.773 214.002a.7.7 0 01-.7-.7l.07-25.511a6.376 6.376 0 00-6.3-6.358l-35.311-.141a.703.703 0 010-1.406l35.315.141a7.787 7.787 0 017.693 7.766l-.07 25.513a.7.7 0 01-.697.696z" data-name="Path 11086"/><circle cx="8.609" cy="8.609" r="8.609" fill="none" stroke="#e00" stroke-linecap="round" stroke-linejoin="round" stroke-width="2" data-name="Ellipse 56" transform="translate(404.253 183.255)"/><circle cx="12.053" cy="12.053" r="12.053" fill="#fff" data-name="Ellipse 57" transform="translate(216.259 67.103)"/><path fill="#e00" d="M228.311 91.911a12.755 12.755 0 1112.755-12.755 12.755 12.755 0 01-12.755 12.755zm0-24.105a11.35 11.35 0 1011.35 11.35 11.35 11.35 0 00-11.35-11.35z" data-name="Path 11087"/><circle cx="4.99" cy="4.99" r="4.99" fill="#e00" data-name="Ellipse 58" transform="translate(399.228 171.333)"/><circle cx="9.452" cy="9.452" r="9.452" fill="#e00" data-name="Ellipse 59" transform="translate(213.166 246.139)"/><circle cx="5.469" cy="5.469" r="5.469" fill="#e00" data-name="Ellipse 60" transform="translate(238.303 243.473)"/><circle cx="6.606" cy="6.606" r="6.606" fill="#fff" data-name="Ellipse 61" transform="translate(223.884 257.138)"/><path fill="#e00" d="M230.49 271.053a7.309 7.309 0 117.309-7.309 7.309 7.309 0 01-7.309 7.309zm0-13.213a5.9 5.9 0 105.9 5.9 5.9 5.9 0 00-5.9-5.9z" data-name="Path 11088"/></g></svg>