<svg xmlns="http://www.w3.org/2000/svg" width="254.043" height="224" viewBox="0 0 254.043 224">
  <g id="digital_design" transform="translate(-177.934 -66.4)">
    <path id="Path_11074" data-name="Path 11074" d="M199.863,173.155c-1.476-15.075-2.249-31.327,7.274-43.407,10.612-13.426,29.8-18.911,47.227-16.724,20.556,2.591,40.726,14.469,60.755,9.321,14.512-3.735,24.878-15.512,36.053-25.136,10.858-9.287,23.859-17.195,38.372-18.507,14.512-1.279,30.5,5.619,35.772,18.608,3.584,8.85,1.827,18.81-.211,28.1-5.728,26.112-13.353,51.954-25.089,76.181-4.146,8.614-8.89,17.195-10.19,26.583-2.319,16.993,6.817,35.331-.843,50.81-4.814,9.724-15.5,15.815-26.495,18.036s-22.384,1.11-33.523-.236c-19.748-2.355-39.918-5.518-57.136-15.041C257.139,273.63,206.5,241.8,199.863,173.155Z" transform="translate(-13.648 -7.881)" fill="#e00" opacity="0.15"/>
    <rect id="Rectangle_2844" data-name="Rectangle 2844" width="160.656" height="59.842" transform="translate(263.591 221.05)" fill="#e00" opacity="0.15"/>
    <rect id="Rectangle_2845" data-name="Rectangle 2845" width="157.177" height="21.646" transform="translate(255.72 110.153)" fill="#fff"/>
    <rect id="Rectangle_2846" data-name="Rectangle 2846" width="161.675" height="91.08" transform="translate(177.934 142.365)" fill="#e00" opacity="0.15"/>
    <circle id="Ellipse_47" data-name="Ellipse 47" cx="8.609" cy="8.609" r="8.609" transform="translate(228.382 79.05)" fill="#e00"/>
    <rect id="Rectangle_2847" data-name="Rectangle 2847" width="160.094" height="88.129" transform="translate(185.05 138.674)" fill="#fff"/>
    <path id="Path_11075" data-name="Path 11075" d="M357.683,374.344h-161.5V284.81h161.5Zm-160.094-1.406H356.277V286.216H197.589Z" transform="translate(-11.837 -146.842)" fill="#e00"/>
    <rect id="Rectangle_2848" data-name="Rectangle 2848" width="160.234" height="18.624" transform="translate(262.361 106.928)" fill="#e00"/>
    <path id="Path_11076" data-name="Path 11076" d="M503.677,212.811H437.616a.7.7,0,1,1,0-1.392h66.061a.7.7,0,1,1,0,1.392Z" transform="translate(-167.981 -96.196)" fill="#fff"/>
    <circle id="Ellipse_48" data-name="Ellipse 48" cx="2.003" cy="2.003" r="2.003" transform="translate(413.108 114.554)" fill="#fff"/>
    <circle id="Ellipse_49" data-name="Ellipse 49" cx="2.003" cy="2.003" r="2.003" transform="translate(406.572 114.52)" fill="#fff"/>
    <circle id="Ellipse_50" data-name="Ellipse 50" cx="4.814" cy="4.814" r="4.814" transform="translate(311.169 162.837)" fill="#fff" stroke="#e00" stroke-miterlimit="10" stroke-width="2"/>
    <circle id="Ellipse_51" data-name="Ellipse 51" cx="10.12" cy="10.12" r="10.12" transform="translate(299.893 178.435)" fill="#e00" stroke="#e00" stroke-miterlimit="10" stroke-width="2.13"/>
    <circle id="Ellipse_52" data-name="Ellipse 52" cx="12.755" cy="12.755" r="12.755" transform="translate(285.623 168.298)" fill="#fff" stroke="#e00" stroke-miterlimit="10" stroke-width="2"/>
    <path id="Path_11077" data-name="Path 11077" d="M316.772,402.406H257.7a.7.7,0,1,1,0-1.406h59.069a.7.7,0,1,1,0,1.406Z" transform="translate(-51.283 -221.949)" fill="#e00"/>
    <path id="Path_11078" data-name="Path 11078" d="M316.772,438.006H257.7a.7.7,0,1,1,0-1.406h59.069a.7.7,0,1,1,0,1.406Z" transform="translate(-51.283 -245.564)" fill="#e00"/>
    <rect id="Rectangle_2849" data-name="Rectangle 2849" width="160.656" height="64.059" transform="translate(270.619 209.805)" fill="#fff"/>
    <path id="Path_11079" data-name="Path 11079" d="M601.761,565.664H439.7V500.2H601.761Zm-160.656-1.406h159.25V501.606H441.106Z" transform="translate(-169.784 -291.098)" fill="#e00"/>
    <path id="Path_11080" data-name="Path 11080" d="M567.7,568.505H515.9a.7.7,0,1,1,0-1.406H567.7a.7.7,0,0,1,0,1.406Z" transform="translate(-218.754 -332.128)" fill="#e00"/>
    <circle id="Ellipse_53" data-name="Ellipse 53" cx="7.414" cy="7.414" r="7.414" transform="translate(378.425 228.711)" fill="#fff"/>
    <path id="Path_11081" data-name="Path 11081" d="M754.617,564.034a8.117,8.117,0,1,1,8.117-8.117A8.117,8.117,0,0,1,754.617,564.034Zm0-14.829a6.712,6.712,0,1,0,6.712,6.712A6.712,6.712,0,0,0,754.617,549.206Z" transform="translate(-368.777 -319.809)" fill="#e00"/>
    <circle id="Ellipse_54" data-name="Ellipse 54" cx="12.896" cy="12.896" r="12.896" transform="translate(382.256 230.457)" fill="#e00"/>
    <path id="Path_11082" data-name="Path 11082" d="M757.924,607.706a4.993,4.993,0,0,0,4.814-8.75h0a4.993,4.993,0,1,0-4.814,8.75Z" transform="translate(-374.509 -353.149)" fill="#fff"/>
    <path id="Path_11083" data-name="Path 11083" d="M759.026,607.747a5.7,5.7,0,1,1,1.588-.227A5.7,5.7,0,0,1,759.026,607.747Zm.008-9.993a4.288,4.288,0,0,0-2.076,8.049h0a4.29,4.29,0,1,0,2.076-8.049Z" transform="translate(-373.204 -351.882)" fill="#e00"/>
    <rect id="Rectangle_2850" data-name="Rectangle 2850" width="23.93" height="9.909" rx="2" transform="translate(296.411 244.036)" fill="#e00"/>
    <rect id="Rectangle_2851" data-name="Rectangle 2851" width="22.524" height="8.504" transform="translate(326.42 244.759)" fill="#fff"/>
    <path id="Path_11084" data-name="Path 11084" d="M621.727,604.809H599.2a.7.7,0,0,1-.7-.7v-8.5a.7.7,0,0,1,.7-.7h22.524a.7.7,0,0,1,.7.7v8.5a.7.7,0,0,1-.7.7ZM599.906,603.4h21.119v-7.1H599.906Z" transform="translate(-272.783 -350.864)" fill="#e00"/>
    <circle id="Ellipse_55" data-name="Ellipse 55" cx="9.031" cy="9.031" r="9.031" transform="translate(213.694 246.631)" fill="#fff"/>
    <path id="Path_11085" data-name="Path 11085" d="M295.8,238.689a.7.7,0,0,1-.7-.7V220.031a7.739,7.739,0,0,1,7.731-7.731h35.526a.7.7,0,1,1,0,1.406H302.831a6.332,6.332,0,0,0-6.325,6.325v17.956A.7.7,0,0,1,295.8,238.689Z" transform="translate(-75.995 -97.038)" fill="#e00"/>
    <path id="Path_11086" data-name="Path 11086" d="M695.838,440.02h0a.7.7,0,0,1-.7-.7l.07-25.511a6.376,6.376,0,0,0-6.3-6.358l-35.311-.141a.7.7,0,0,1,0-1.406h0l35.315.141a7.787,7.787,0,0,1,7.693,7.766l-.07,25.513A.7.7,0,0,1,695.838,440.02Z" transform="translate(-308.065 -226.018)" fill="#e00"/>
    <circle id="Ellipse_56" data-name="Ellipse 56" cx="8.609" cy="8.609" r="8.609" transform="translate(404.253 183.255)" fill="none" stroke="#e00" stroke-linecap="round" stroke-linejoin="round" stroke-width="2"/>
    <circle id="Ellipse_57" data-name="Ellipse 57" cx="12.053" cy="12.053" r="12.053" transform="translate(216.259 67.103)" fill="#fff"/>
    <path id="Path_11087" data-name="Path 11087" d="M297.755,91.911a12.755,12.755,0,1,1,12.755-12.755A12.755,12.755,0,0,1,297.755,91.911Zm0-24.105a11.35,11.35,0,1,0,11.35,11.35,11.35,11.35,0,0,0-11.35-11.35Z" transform="translate(-69.444)" fill="#e00"/>
    <circle id="Ellipse_58" data-name="Ellipse 58" cx="4.99" cy="4.99" r="4.99" transform="translate(399.228 171.333)" fill="#e00"/>
    <circle id="Ellipse_59" data-name="Ellipse 59" cx="9.452" cy="9.452" r="9.452" transform="translate(213.166 246.139)" fill="#e00"/>
    <circle id="Ellipse_60" data-name="Ellipse 60" cx="5.469" cy="5.469" r="5.469" transform="translate(238.303 243.473)" fill="#e00"/>
    <circle id="Ellipse_61" data-name="Ellipse 61" cx="6.606" cy="6.606" r="6.606" transform="translate(223.884 257.138)" fill="#fff"/>
    <path id="Path_11088" data-name="Path 11088" d="M314.009,649.518a7.309,7.309,0,1,1,7.309-7.309A7.309,7.309,0,0,1,314.009,649.518Zm0-13.213a5.9,5.9,0,1,0,5.9,5.9,5.9,5.9,0,0,0-5.9-5.9Z" transform="translate(-83.519 -378.465)" fill="#e00"/>
  </g>
</svg>
