<svg xmlns="http://www.w3.org/2000/svg" width="234.193" height="224" viewBox="0 0 234.193 224">
  <g id="product_design" transform="translate(-195.4 -53.1)">
    <path id="Path_11052" data-name="Path 11052" d="M569.4,100.221h0c1.092,1.741,2.355,3.447,3.686,5.256l.137.171a81.85,81.85,0,0,1,4.676,8.02,47.276,47.276,0,0,1,2.287,6.007l-.2-.034.137,11.228c10.716,8.942,18.7,0,18.7,0l.137-11.228-.2.034c.546-1.16,4.983-10.443,9.727-15.733h0A25.061,25.061,0,0,0,575.716,66.4h0s-.1.068-.273.2A25.083,25.083,0,0,0,565,86.979C564.965,91.894,566.74,96.057,569.4,100.221Zm27.406,19.795a59.515,59.515,0,0,1-13.72.068,96.885,96.885,0,0,0,13.72-.068Z" transform="translate(-243.459 -5.791)" fill="#e00" opacity="0.15"/>
    <circle id="Ellipse_44" data-name="Ellipse 44" cx="46.279" cy="46.279" r="46.279" transform="translate(259.528 128.295)" fill="#e00" opacity="0.15"/>
    <path id="Path_11053" data-name="Path 11053" d="M196.39,259.1h43.856a.99.99,0,0,1,.99.99v76.551a.99.99,0,0,1-.99.99H196.39a.99.99,0,0,1-.99-.99V260.09A.99.99,0,0,1,196.39,259.1Z" transform="translate(0 -140.67)" fill="#e00" opacity="0.15"/>
    <rect id="Rectangle_2835" data-name="Rectangle 2835" width="142.147" height="109.247" transform="translate(279.938 151.813)" fill="#e00" opacity="0.15"/>
    <path id="Path_11054" data-name="Path 11054" d="M358.959,348.935A84.777,84.777,0,1,1,418.9,324.1,84.777,84.777,0,0,1,358.959,348.935Zm0-168.187a83.411,83.411,0,1,0,58.981,24.431,83.411,83.411,0,0,0-58.981-24.431Z" transform="translate(-51.889 -94.258)" fill="#e00"/>
    <path id="Path_11055" data-name="Path 11055" d="M211.19,244.1h43.856a.99.99,0,0,1,.99.99v76.551a.99.99,0,0,1-.99.99H211.19a.99.99,0,0,1-.99-.99V245.09A1.037,1.037,0,0,1,211.19,244.1Z" transform="translate(-9.749 -130.427)" fill="#e00"/>
    <path id="Path_11056" data-name="Path 11056" d="M390.089,130.843A106.5,106.5,0,0,0,331.943,113.6h-.178a107.274,107.274,0,0,0-98.822,65.513.683.683,0,1,0,1.263.52,105.9,105.9,0,0,1,97.56-64.667,1.152,1.152,0,0,0,.177,0,105.142,105.142,0,0,1,57.4,17.023.683.683,0,1,0,.744-1.145Z" transform="translate(-24.696 -39.852)" fill="#e00"/>
    <path id="Path_11057" data-name="Path 11057" d="M475.634,644.806a108.75,108.75,0,0,1-23.8-2.644.683.683,0,0,1,.3-1.332,107.405,107.405,0,0,0,23.5,2.611,105.7,105.7,0,0,0,89.049-48.627.683.683,0,0,1,1.148.739A107.071,107.071,0,0,1,475.634,644.806Z" transform="translate(-168.564 -367.706)" fill="#e00"/>
    <circle id="Ellipse_45" data-name="Ellipse 45" cx="1.195" cy="1.195" r="1.195" transform="translate(220.997 121.001)" fill="#fff"/>
    <rect id="Rectangle_2836" data-name="Rectangle 2836" width="39.624" height="53.617" transform="translate(203.557 126.003)" fill="#fff"/>
    <path id="Path_11058" data-name="Path 11058" d="M268.908,454.474H257.3a1.6,1.6,0,0,1-1.6-1.57,1.618,1.618,0,0,1,1.57-1.6h11.6a1.573,1.573,0,0,1,1.57,1.6,1.537,1.537,0,0,1-1.536,1.57Z" transform="translate(-39.72 -268.792)" fill="#fff"/>
    <path id="Path_11059" data-name="Path 11059" d="M283.076,326.665H266.183a.683.683,0,1,1,0-1.365h16.894a.683.683,0,1,1,0,1.365Z" transform="translate(-46.176 -183.705)" fill="#e00"/>
    <path id="Path_11060" data-name="Path 11060" d="M241.707,326.665h-5.324a.683.683,0,1,1,0-1.365h5.324a.683.683,0,1,1,0,1.365Z" transform="translate(-26.546 -183.705)" fill="#e00"/>
    <path id="Path_11061" data-name="Path 11061" d="M263.447,390.366H236.383a.683.683,0,0,1,0-1.365h27.064a.683.683,0,1,1,0,1.365Z" transform="translate(-26.546 -226.696)" fill="#e00"/>
    <rect id="Rectangle_2837" data-name="Rectangle 2837" width="27.747" height="7.645" rx="1" transform="translate(209.495 148.811)" fill="#e00"/>
    <rect id="Rectangle_2838" data-name="Rectangle 2838" width="142.147" height="109.247" transform="translate(286.763 144.987)" fill="#fff"/>
    <path id="Path_11062" data-name="Path 11062" d="M604.612,463.412H461.1V352.8H604.612Zm-142.147-1.365H603.247V354.165H462.465Z" transform="translate(-175.019 -208.496)" fill="#e00"/>
    <rect id="Rectangle_2839" data-name="Rectangle 2839" width="52.149" height="34.778" rx="1" transform="translate(363.485 173.843)" fill="#e00"/>
    <path id="Path_11063" data-name="Path 11063" d="M702.868,606.765H687.783a.683.683,0,1,1,0-1.365h15.085a.683.683,0,1,1,0,1.365Z" transform="translate(-323.888 -374.886)" fill="#e00"/>
    <path id="Path_11064" data-name="Path 11064" d="M768.367,606.765H753.283a.683.683,0,1,1,0-1.365h15.085a.683.683,0,1,1,0,1.365Z" transform="translate(-367.034 -374.886)" fill="#e00"/>
    <path id="Path_11065" data-name="Path 11065" d="M739.249,566.665H687.783a.683.683,0,1,1,0-1.365h51.467a.683.683,0,0,1,0,1.365Z" transform="translate(-323.888 -345.679)" fill="#e00"/>
    <rect id="Rectangle_2840" data-name="Rectangle 2840" width="10.443" height="37.917" transform="translate(300.415 202.784)" fill="#e00"/>
    <rect id="Rectangle_2841" data-name="Rectangle 2841" width="10.443" height="68.326" transform="translate(318.879 172.771)" fill="#e00" opacity="0.5"/>
    <rect id="Rectangle_2842" data-name="Rectangle 2842" width="10.443" height="58.668" transform="translate(337.342 182.289)" fill="#e00" opacity="0.15"/>
    <path id="Path_11066" data-name="Path 11066" d="M622.335,80.185a25.068,25.068,0,1,0-43.48,17h0c5.051,5.665,9.761,15.87,9.761,15.87a87.544,87.544,0,0,0,18.43,0,48.338,48.338,0,0,1,7.133-14.368C618.751,92.574,622.335,87.148,622.335,80.185Z" transform="translate(-248.202 -1.318)" fill="#fff"/>
    <rect id="Rectangle_2843" data-name="Rectangle 2843" width="142.113" height="9.863" transform="translate(286.797 150.774)" fill="#e00"/>
    <circle id="Ellipse_46" data-name="Ellipse 46" cx="1.331" cy="1.331" r="1.331" transform="translate(420.105 154.408)" fill="#fff"/>
    <path id="Path_11067" data-name="Path 11067" d="M576.587,92c-6.28,10.58-3.686,21.6,4.812,30.989a48.339,48.339,0,0,1,7.133,14.368c2.833.307,15.6-.034,18.43,0a80.3,80.3,0,0,1,6.86-12.116C588.43,127.631,578.669,107.9,576.587,92Z" transform="translate(-248.801 -25.624)" fill="#e00" opacity="0.15"/>
    <path id="Path_11068" data-name="Path 11068" d="M627.8,237.3a18.933,18.933,0,0,0,13.276,0" transform="translate(-284.826 -124.312)" fill="#e00" stroke="#fff" stroke-linecap="round" stroke-miterlimit="10" stroke-width="4"/>
    <path id="Path_11069" data-name="Path 11069" d="M627.8,250.7a18.933,18.933,0,0,0,13.276,0" transform="translate(-284.826 -133.356)" fill="#e00" stroke="#fff" stroke-linecap="round" stroke-miterlimit="10" stroke-width="4"/>
    <path id="Path_11070" data-name="Path 11070" d="M259.884,576.11a.68.68,0,0,1-.425-.149A106.317,106.317,0,0,1,224.835,526.5a.683.683,0,1,1,1.295-.434,104.948,104.948,0,0,0,34.18,48.829.683.683,0,0,1-.426,1.216Z" transform="translate(-19.366 -322.32)" fill="#e00"/>
    <path id="Path_11071" data-name="Path 11071" d="M645.483,173.413a.683.683,0,0,1-.682-.683V146.383a.683.683,0,1,1,1.365,0V172.73A.683.683,0,0,1,645.483,173.413Z" transform="translate(-296.025 -60.997)" fill="#e00"/>
    <path id="Path_11072" data-name="Path 11072" d="M633.938,137.516c-1.274,0-1.739-1.53-2.189-3.01-.192-.63-.59-1.941-.887-2.042-.289.1-.687,1.412-.879,2.042-.45,1.48-.915,3.01-2.189,3.01s-1.739-1.53-2.189-3.01c-.192-.63-.59-1.941-.887-2.042-.289.1-.688,1.412-.879,2.042-.45,1.48-.915,3.01-2.189,3.01s-1.739-1.53-2.189-3.01c-.192-.63-.59-1.941-.887-2.042a.682.682,0,0,1,0-1.364c1.274,0,1.739,1.53,2.189,3.01.192.63.59,1.941.887,2.042.289-.1.688-1.412.879-2.042.45-1.48.915-3.01,2.189-3.01s1.739,1.53,2.189,3.01c.192.63.59,1.941.887,2.042.289-.1.688-1.412.879-2.042.45-1.48.915-3.01,2.189-3.01s1.739,1.53,2.189,3.01c.192.63.59,1.941.887,2.042.289-.1.688-1.412.879-2.042.45-1.48.915-3.01,2.189-3.01a.683.683,0,0,1,0,1.365c-.293.1-.691,1.412-.883,2.042C635.677,135.986,635.212,137.516,633.938,137.516Z" transform="translate(-278.303 -51.379)" fill="#e00"/>
    <path id="Path_11073" data-name="Path 11073" d="M595.966,53.1a25.752,25.752,0,0,0-18.939,43.218c4.924,5.523,9.6,15.6,9.651,15.7l.011.024.132,10.879.085.1a13.686,13.686,0,0,0,9.381,4.068c2.836,0,6.17-1.009,9.794-4.033l.121-.1.132-10.855.05-.184a48.074,48.074,0,0,1,7.021-14.14c4.537-6.061,8.293-11.667,8.293-18.907A25.779,25.779,0,0,0,595.966,53.1Zm16.347,43.857A48.839,48.839,0,0,0,605.2,111.1a87.242,87.242,0,0,1-17.449-.007c-.891-1.88-5.116-10.538-9.714-15.695a24.386,24.386,0,1,1,42.3-16.532C620.334,85.687,616.7,91.094,612.314,96.957Z" transform="translate(-246.884)" fill="#e00"/>
  </g>
</svg>
