<svg xmlns="http://www.w3.org/2000/svg" width="234.193" height="224"><g transform="translate(-195.4 -53.1)"><path fill="#e00" d="M325.941 94.43c1.092 1.741 2.355 3.447 3.686 5.256l.137.171a81.85 81.85 0 014.676 8.02 47.276 47.276 0 012.287 6.007l-.2-.034.137 11.228c10.716 8.942 18.7 0 18.7 0l.137-11.228-.2.034c.546-1.16 4.983-10.443 9.727-15.733a25.061 25.061 0 00-32.771-37.542s-.1.068-.273.2a25.083 25.083 0 00-10.443 20.379c-.035 4.915 1.74 9.078 4.4 13.242zm27.406 19.795a59.515 59.515 0 01-13.72.068 96.885 96.885 0 0013.72-.068z" data-name="Path 11052" opacity=".15"/><circle cx="46.279" cy="46.279" r="46.279" fill="#e00" data-name="Ellipse 44" opacity=".15" transform="translate(259.528 128.295)"/><path fill="#e00" d="M196.39 118.43h43.856a.99.99 0 01.99.99v76.551a.99.99 0 01-.99.99H196.39a.99.99 0 01-.99-.99V119.42a.99.99 0 01.99-.99z" data-name="Path 11053" opacity=".15"/><path fill="#e00" d="M279.938 151.813h142.147V261.06H279.938z" data-name="Rectangle 2835" opacity=".15"/><path fill="#e00" d="M307.07 254.677a84.777 84.777 0 1159.941-24.835 84.777 84.777 0 01-59.941 24.835zm0-168.187a83.411 83.411 0 1058.981 24.431A83.411 83.411 0 00307.07 86.49z" data-name="Path 11054"/><path fill="#e00" d="M201.441 113.673h43.856a.99.99 0 01.99.99v76.551a.99.99 0 01-.99.99h-43.856a.99.99 0 01-.99-.99v-76.551a1.037 1.037 0 01.99-.99z" data-name="Path 11055"/><path fill="#e00" d="M365.393 90.991a106.5 106.5 0 00-58.146-17.243h-.178a107.274 107.274 0 00-98.822 65.513.683.683 0 101.263.52 105.9 105.9 0 0197.56-64.667 1.152 1.152 0 00.177 0 105.142 105.142 0 0157.4 17.023.683.683 0 10.744-1.145z" data-name="Path 11056"/><path fill="#e00" d="M307.07 277.1a108.75 108.75 0 01-23.8-2.644.683.683 0 01.3-1.332 107.405 107.405 0 0023.5 2.611 105.7 105.7 0 0089.049-48.627.683.683 0 011.148.739A107.071 107.071 0 01307.07 277.1z" data-name="Path 11057"/><circle cx="1.195" cy="1.195" r="1.195" fill="#fff" data-name="Ellipse 45" transform="translate(220.997 121.001)"/><path fill="#fff" d="M203.557 126.003h39.624v53.617h-39.624z" data-name="Rectangle 2836"/><path fill="#fff" d="M229.188 185.682H217.58a1.6 1.6 0 01-1.6-1.57 1.618 1.618 0 011.57-1.6h11.6a1.573 1.573 0 011.57 1.6 1.537 1.537 0 01-1.536 1.57z" data-name="Path 11058"/><path fill="#e00" d="M236.9 142.96h-16.893a.683.683 0 110-1.365h16.894a.683.683 0 110 1.365z" data-name="Path 11059"/><path fill="#e00" d="M215.161 142.96h-5.324a.683.683 0 110-1.365h5.324a.683.683 0 110 1.365z" data-name="Path 11060"/><path fill="#e00" d="M236.901 163.67h-27.064a.683.683 0 010-1.365h27.064a.683.683 0 110 1.365z" data-name="Path 11061"/><rect width="27.747" height="7.645" fill="#e00" data-name="Rectangle 2837" rx="1" transform="translate(209.495 148.811)"/><path fill="#fff" d="M286.763 144.987H428.91v109.247H286.763z" data-name="Rectangle 2838"/><path fill="#e00" d="M429.593 254.916H286.081V144.304h143.512zm-142.147-1.365h140.782V145.669H287.446z" data-name="Path 11062"/><rect width="52.149" height="34.778" fill="#e00" data-name="Rectangle 2839" rx="1" transform="translate(363.485 173.843)"/><path fill="#e00" d="M378.98 231.879h-15.085a.683.683 0 110-1.365h15.085a.683.683 0 110 1.365z" data-name="Path 11063"/><path fill="#e00" d="M401.333 231.879h-15.084a.683.683 0 110-1.365h15.085a.683.683 0 110 1.365z" data-name="Path 11064"/><path fill="#e00" d="M415.361 220.986h-51.466a.683.683 0 110-1.365h51.467a.683.683 0 010 1.365z" data-name="Path 11065"/><path fill="#e00" d="M300.415 202.784h10.443v37.917h-10.443z" data-name="Rectangle 2840"/><path fill="#e00" d="M318.879 172.771h10.443v68.326h-10.443z" data-name="Rectangle 2841" opacity=".5"/><path fill="#e00" d="M337.342 182.289h10.443v58.668h-10.443z" data-name="Rectangle 2842" opacity=".15"/><path fill="#fff" d="M374.133 78.867a25.068 25.068 0 10-43.48 17c5.051 5.665 9.761 15.87 9.761 15.87a87.544 87.544 0 0018.43 0 48.338 48.338 0 017.133-14.368c4.572-6.113 8.156-11.539 8.156-18.502z" data-name="Path 11066"/><path fill="#e00" d="M286.797 150.774H428.91v9.863H286.797z" data-name="Rectangle 2843"/><circle cx="1.331" cy="1.331" r="1.331" fill="#fff" data-name="Ellipse 46" transform="translate(420.105 154.408)"/><path fill="#e00" d="M327.786 66.376c-6.28 10.58-3.686 21.6 4.812 30.989a48.339 48.339 0 017.133 14.368c2.833.307 15.6-.034 18.43 0a80.3 80.3 0 016.86-12.116c-25.392 2.39-35.153-17.341-37.235-33.241z" data-name="Path 11067" opacity=".15"/><path fill="#e00" stroke="#fff" stroke-linecap="round" stroke-miterlimit="10" stroke-width="4" d="M342.974 112.988a18.933 18.933 0 0013.276 0" data-name="Path 11068"/><path fill="#e00" stroke="#fff" stroke-linecap="round" stroke-miterlimit="10" stroke-width="4" d="M342.974 117.344a18.933 18.933 0 0013.276 0" data-name="Path 11069"/><path fill="#e00" d="M240.518 253.79a.68.68 0 01-.425-.149 106.317 106.317 0 01-34.624-49.461.683.683 0 111.295-.434 104.948 104.948 0 0034.18 48.829.683.683 0 01-.426 1.216z" data-name="Path 11070"/><path fill="#e00" d="M349.458 112.416a.683.683 0 01-.682-.683V85.386a.683.683 0 111.365 0v26.347a.683.683 0 01-.683.683z" data-name="Path 11071"/><path fill="#e00" d="M355.635 86.137c-1.274 0-1.739-1.53-2.189-3.01-.192-.63-.59-1.941-.887-2.042-.289.1-.687 1.412-.879 2.042-.45 1.48-.915 3.01-2.189 3.01s-1.739-1.53-2.189-3.01c-.192-.63-.59-1.941-.887-2.042-.289.1-.688 1.412-.879 2.042-.45 1.48-.915 3.01-2.189 3.01s-1.739-1.53-2.189-3.01c-.192-.63-.59-1.941-.887-2.042a.682.682 0 010-1.364c1.274 0 1.739 1.53 2.189 3.01.192.63.59 1.941.887 2.042.289-.1.688-1.412.879-2.042.45-1.48.915-3.01 2.189-3.01s1.739 1.53 2.189 3.01c.192.63.59 1.941.887 2.042.289-.1.688-1.412.879-2.042.45-1.48.915-3.01 2.189-3.01s1.739 1.53 2.189 3.01c.192.63.59 1.941.887 2.042.289-.1.688-1.412.879-2.042.45-1.48.915-3.01 2.189-3.01a.683.683 0 010 1.365c-.293.1-.691 1.412-.883 2.042-.446 1.479-.911 3.009-2.185 3.009z" data-name="Path 11072"/><path fill="#e00" d="M349.082 53.1a25.752 25.752 0 00-18.939 43.218c4.924 5.523 9.6 15.6 9.651 15.7l.011.024.132 10.879.085.1a13.686 13.686 0 009.381 4.068c2.836 0 6.17-1.009 9.794-4.033l.121-.1.132-10.855.05-.184a48.074 48.074 0 017.021-14.14c4.537-6.061 8.293-11.667 8.293-18.907a25.779 25.779 0 00-25.732-25.77zm16.347 43.857a48.839 48.839 0 00-7.113 14.143 87.242 87.242 0 01-17.449-.007c-.891-1.88-5.116-10.538-9.714-15.695a24.386 24.386 0 1142.3-16.532c-.003 6.821-3.637 12.228-8.023 18.091z" data-name="Path 11073"/></g></svg>