<svg xmlns="http://www.w3.org/2000/svg" width="312.94" height="235"><defs><clipPath id="a"><path fill="#e00" d="M0 0h37.396v37.396H0z" data-name="Rectangle 2827"/></clipPath></defs><g data-name="brand &amp; creative-01" transform="translate(-138.162 -98.419)"><circle cx="54.589" cy="54.589" r="54.589" fill="#e00" data-name="Ellipse 43" opacity=".15" transform="translate(155.175 116.425)"/><path fill="#e00" d="M214.609 170.486h176.897v134.968H214.609z" data-name="Rectangle 2822" opacity=".15"/><path fill="#fff" d="M222.425 162.643H397.29v134.538H222.425z" data-name="Rectangle 2823"/><path fill="#e00" d="M398.071 298.419H221.643v-136.1h176.428zm-174.865-1.563h173.3V163.882h-173.3z" data-name="Path 11039"/><g data-name="Group 1152" opacity=".5"><path fill="#e00" d="M291.823 189.614h37.396v37.396h-37.396z" data-name="Rectangle 2824"/><path fill="#e00" d="M291.823 189.614h37.396v37.396h-37.396z" data-name="Rectangle 2825"/><g clip-path="url(#a)" data-name="Group 1151" transform="translate(291.823 189.614)"><path fill="#e00" d="M0-1.837h48.689v48.689H0z" data-name="Rectangle 2826"/></g></g><path fill="#e00" d="M246.925 189.614h37.396v37.396h-37.396z" data-name="Rectangle 2828"/><path fill="#e00" d="M334.924 189.379h37.63v37.63h-37.63z" data-name="Rectangle 2829" opacity=".15"/><g data-name="Group 1153" style="isolation:isolate" fill="#e00"><path d="M255.287 245.944h2.607l8.046 19.625h-2.355l-2.467-6.168h-9.252l-2.5 6.168h-2.238zm5.074 11.607l-3.841-9.588-3.9 9.588z" data-name="Path 11040"/><path d="M267.062 261.587c0-2.635 2.159-4.289 5.607-4.289a9.1 9.1 0 014.121.953v-1.85c0-2.243-1.29-3.392-3.729-3.392a9.313 9.313 0 00-4.4 1.234l-.785-1.6a11.933 11.933 0 015.383-1.4c3.56 0 5.551 1.739 5.551 4.878v9.448h-2.019v-1.374a6.691 6.691 0 01-4.542 1.626c-3.085 0-5.187-1.71-5.187-4.234zm5.551 2.607a5.6 5.6 0 004.177-1.626v-2.635a6.863 6.863 0 00-4.065-1.121c-2.243 0-3.673 1.065-3.673 2.719 0 1.571 1.458 2.664 3.561 2.664z" data-name="Path 11041"/></g><g data-name="Group 1154" style="isolation:isolate" fill="#e00"><path d="M299.66 246.542h3.9l7.6 19.625h-3.616l-1.991-5.5h-8.08l-2.019 5.5h-3.5zm4.907 11.495l-3.028-8.355-3.084 8.355z" data-name="Path 11042"/><path d="M312.585 262.129c0-2.523 2.047-4.121 5.355-4.121a8.68 8.68 0 013.785.869v-1.542c0-1.85-1.065-2.8-3.225-2.8a9.717 9.717 0 00-4.093 1.094l-1.121-2.3a13.486 13.486 0 015.831-1.43c3.645 0 5.747 1.85 5.747 5.1v9.168h-3.14v-1.43a5.865 5.865 0 01-4.178 1.654c-2.942 0-4.961-1.738-4.961-4.262zm5.832 2.047a5.011 5.011 0 003.308-1.149v-2.3a7.271 7.271 0 00-3.252-.673c-1.794 0-2.916.785-2.916 2.019 0 1.289 1.121 2.1 2.86 2.1z" data-name="Path 11043"/></g><g data-name="Group 1155"><path fill="#e00" d="M346.912 246.397h2.551l3.42 19.625h-2.159l-1.005-6.168h-8.523l-3.561 6.168h-2.383zm2.523 11.747l-1.626-9.812-5.635 9.812z" data-name="Path 11044"/></g><g data-name="Group 1156"><path fill="#e00" d="M355.406 262.388c0-2.607 2.131-4.4 5.243-4.4a7.738 7.738 0 014.514 1.318l.365-1.654c.561-2.523-.5-3.813-3.112-3.813a9.4 9.4 0 00-3.925 1.037l-.56-1.6a12.427 12.427 0 014.85-1.121c3.672 0 5.5 2.019 4.766 5.327l-1.906 8.551h-1.99l.281-1.29a6.286 6.286 0 01-3.981 1.486c-2.722 0-4.545-1.514-4.545-3.841zm5.131 2.3a5.787 5.787 0 003.729-1.4l.589-2.608a6.257 6.257 0 00-4.009-1.177c-2.047 0-3.5 1.121-3.5 2.663 0 1.6 1.177 2.523 3.2 2.523z" data-name="Path 11045"/></g><path fill="#e00" d="M259.319 118.103c-13.309-11.64-32.192-18.872-49.28-18.872h-.14a71.935 71.935 0 00-51.654 22.01 2.7 2.7 0 101.174 1.034 70.362 70.362 0 0150.619-21.481c16.727 0 35.216 7.083 48.252 18.485a.782.782 0 101.029-1.177z" data-name="Path 11046"/><path fill="#e00" d="M169.359 227.812a2.68 2.68 0 00-1.164.267 70.552 70.552 0 01-23.451-82.749 2.7 2.7 0 10-1.417-.666 72.117 72.117 0 0023.7 84.493 2.695 2.695 0 102.331-1.346z" data-name="Path 11047"/><path fill="#e00" d="M447.078 236.827a72.34 72.34 0 00-34.591-40.5v-.052a2.739 2.739 0 10-.492 1.563 71.243 71.243 0 0130.308 93.947 73.507 73.507 0 01-4.508 7.932 2.738 2.738 0 101.4.718 75.11 75.11 0 004.513-7.964 72.342 72.342 0 003.368-55.645z" data-name="Path 11048"/><path fill="#e00" d="M421.399 315.536a2.73 2.73 0 00-2.584 3.627 71.362 71.362 0 01-97.661-15.917c-.068-.084-.126-.169-.185-.253a6.43 6.43 0 00-.245-.333.782.782 0 00-1.22.977c.068.084.126.169.185.253.078.111.156.222.229.313a72.4 72.4 0 0047.938 28.455 73.905 73.905 0 0010.556.761 72.154 72.154 0 0041.321-12.983 2.734 2.734 0 101.668-4.9z" data-name="Path 11049"/><path fill="#fff" d="M304.62 133.072H191.886v13.364H304.62l22.84-6.721z" data-name="Path 11050"/><path fill="#f27979" d="M178.034 133.072h8.362v13.364h-8.362z" data-name="Rectangle 2830"/><path fill="#ffb0b0" d="M186.397 133.072h5.979v13.364h-5.979z" data-name="Rectangle 2831"/><path fill="#e00" d="M191.984 142.419h112.539v4.377H191.984z" data-name="Rectangle 2832" opacity=".7" style="isolation:isolate"/><path fill="#e00" d="M186.397 142.419h6.369v4.377h-6.369z" data-name="Rectangle 2833" opacity=".7" style="isolation:isolate"/><path fill="#e00" d="M178.034 142.419h8.362v4.377h-8.362z" data-name="Rectangle 2834" opacity=".7" style="isolation:isolate"/><path fill="#e00" d="M350.834 106.107c-5.36-6.211-8.675-8.506-10.75-7.435-3.544 1.828-1.141 12.8 3.237 30.65 1.541 6.286 3.136 12.785 4.041 17.914.948 5.367-.013 6.684-.67 6.992-.762.356-3.331.426-10.715-6.613-4.208-4.011-7.883-8.36-7.92-8.4a.776.776 0 00-.461-.262l-22.761-6.62h-.025a.776.776 0 00-.11-.018c-.02 0-.039-.005-.059-.006H178.035a.774.774 0 00-.774.774v13.364a.774.774 0 00.774.774h126.586a.767.767 0 00.2-.029h.021l22.349-6.592c1 1.157 4.161 4.762 7.7 8.138 5.044 4.81 8.721 7.176 11.168 7.176a3.021 3.021 0 001.3-.271c1.914-.9 2.42-3.734 1.547-8.679-.915-5.179-2.515-11.7-4.063-18.015-1.686-6.875-3.43-13.985-4.312-19.438-1.254-7.754-.226-9.192.274-9.45.572-.3 2.582-.2 8.85 7.067 10.914 12.647 16.115 21.87 18.556 27.379 2.642 5.962 2.706 8.974 2.707 9a.781.781 0 00.781.779.781.781 0 00.779-.784c-.003-.502-.287-12.648-21.644-37.395zm-165.211 39.555h-6.815v-11.817h6.815zm5.979 0h-4.431v-11.817h4.431zm112.245 0h-110.7v-11.817h110.7zm13.611-3.81l-12.063 3.55V134.1l12.063 3.508z" data-name="Path 11051"/></g></svg>