<?xml version="1.0" encoding="utf-8"?>
<!-- Generator: Adobe Illustrator 26.3.1, SVG Export Plug-In . SVG Version: 6.00 Build 0)  -->
<svg version="1.1" id="Layer_1" xmlns="http://www.w3.org/2000/svg" xmlns:xlink="http://www.w3.org/1999/xlink" x="0px" y="0px"
	 width="154px" height="48px" viewBox="0 0 154 48" style="enable-background:new 0 0 154 48;" xml:space="preserve">
<g style="enable-background:new    ;">
	<path style="fill:#FFFFFF;" d="M82.2,28h5.7c4.1,0,7.4,3.1,7.4,7c0,3.9-3.3,7-7.4,7h-5.7V28z M85.6,31V39h2.2
		c2.2,0,3.9-1.7,3.9-3.9c0-2.2-1.7-4-3.9-4H85.6z"/>
	<path style="fill:#FFFFFF;" d="M101.9,31.2c3.1,0,5.3,2.4,5.3,5.8v0.8h-7.5c0.4,1,1.4,1.7,2.6,1.7c0.9,0,1.6-0.3,2.1-0.8l2.1,1.9
		c-1.3,1.1-2.6,1.6-4.4,1.6c-3.2,0-5.8-2.4-5.8-5.5C96.4,33.6,98.8,31.2,101.9,31.2z M99.7,35.6h4.4c-0.3-1-1.2-1.7-2.2-1.7
		C100.8,33.9,100,34.5,99.7,35.6z"/>
	<path style="fill:#FFFFFF;" d="M109.6,38.6c0.9,0.5,2,1.1,3.4,1.1c1.3,0,1.7-0.4,1.7-0.8s-0.3-0.6-1.1-0.8l-2.1-0.3
		c-2.2-0.3-3.2-1.5-3.2-3.2c0-2.2,1.8-3.4,4.6-3.4c1.6,0,3.2,0.5,4.4,1.3l-1.5,2.1c-0.8-0.5-1.9-1-3.2-1c-0.8,0-1.4,0.3-1.4,0.8
		c0,0.4,0.3,0.7,1.2,0.8l2.1,0.3c2.2,0.3,3.3,1.5,3.3,3.1c0,2.2-2.1,3.6-4.8,3.6c-1.8,0-3.6-0.4-5-1.4L109.6,38.6z"/>
	<path style="fill:#FFFFFF;" d="M118.9,28.7c0-1,0.8-1.8,1.8-1.8c1,0,1.8,0.8,1.8,1.8s-0.8,1.8-1.8,1.8
		C119.7,30.4,118.9,29.6,118.9,28.7z M122.3,42H119V31.4h3.2V42z"/>
	<path style="fill:#FFFFFF;" d="M123.8,36.6c0-3,2.4-5.4,5.5-5.4c1,0,1.9,0.2,2.7,0.7v-0.6h3.2v10.5c0,2.9-1.9,4.4-5.5,4.4
		c-1.6,0-3.2-0.3-4.5-0.9l1.1-2.5c1.2,0.5,2.3,0.8,3.4,0.8c1.5,0,2.3-0.6,2.3-1.8v-0.7c-0.8,0.5-1.7,0.8-2.7,0.8
		C126.1,42,123.8,39.7,123.8,36.6z M129.7,39.3c0.9,0,1.6-0.3,2.2-0.8v-3.7c-0.6-0.5-1.3-0.8-2.2-0.8c-1.6,0-2.8,1.1-2.8,2.6
		C126.9,38.2,128.1,39.3,129.7,39.3z"/>
	<path style="fill:#FFFFFF;" d="M137,31.4h3.2v0.7c0.8-0.6,1.7-0.9,2.8-0.9c2.5,0,4.2,1.8,4.2,4.3V42h-3.2v-6.1
		c0-1.1-0.7-1.9-1.9-1.9c-0.8,0-1.5,0.3-1.9,0.8V42H137V31.4z"/>
</g>
<g style="enable-background:new    ;">
	<path style="fill:#FFFFFF;" d="M82.4,6h6.4c2.9,0,4.7,1.8,4.7,4.1c0,1.8-1.1,3.2-2.9,3.8l3.1,6h-2.3l-2.9-5.7h-3.9V20h-2.1V6z
		 M84.5,7.8v4.7h4.1c1.8,0,2.7-1,2.7-2.3c0-1.3-1-2.3-2.7-2.3H84.5z"/>
	<path style="fill:#FFFFFF;" d="M99.4,9.7c2.8,0,4.9,2.3,4.9,5.3v0.6h-8c0.3,1.7,1.7,2.9,3.4,2.9c1,0,1.9-0.3,2.6-0.9l1.3,1.3
		c-1.2,0.9-2.4,1.3-3.9,1.3c-3,0-5.3-2.3-5.3-5.3C94.3,12,96.5,9.7,99.4,9.7z M96.3,14.1h6c-0.3-1.6-1.5-2.7-3-2.7
		C97.8,11.3,96.6,12.5,96.3,14.1z"/>
	<path style="fill:#FFFFFF;" d="M114,19c-0.9,0.7-1.9,1.1-3.1,1.1c-2.9,0-5.1-2.3-5.1-5.3c0-2.9,2.2-5.2,5.2-5.2
		c1.1,0,2.2,0.4,3.1,1V6l2-0.4V20h-2V19z M111.2,18.4c1.2,0,2.2-0.5,2.8-1.2v-4.6c-0.6-0.7-1.7-1.2-2.8-1.2c-2,0-3.5,1.5-3.5,3.5
		C107.7,16.9,109.3,18.4,111.2,18.4z"/>
	<path style="fill:#FFFFFF;" d="M122.8,6h2.1v6h7.4V6h2.1v14h-2.1v-6.1h-7.4V20h-2.1V6z"/>
	<path style="fill:#FFFFFF;" d="M136.3,17.1c0-2,1.7-3.1,4.1-3.1c1,0,1.9,0.2,2.8,0.6v-1.1c0-1.4-0.9-2.2-2.5-2.2
		c-1,0-2,0.3-3.2,0.9l-0.7-1.5c1.4-0.7,2.8-1,4.2-1c2.6,0,4.2,1.3,4.2,3.6V20h-2v-0.9c-0.9,0.7-1.9,1.1-3.2,1.1
		C137.8,20.2,136.3,18.9,136.3,17.1z M140.5,18.7c1.1,0,2-0.3,2.7-1V16c-0.7-0.4-1.6-0.6-2.6-0.6c-1.4,0-2.4,0.6-2.4,1.7
		C138.2,18,139.2,18.7,140.5,18.7z"/>
	<path style="fill:#FFFFFF;" d="M148.4,11.5h-2.2V9.8h2.2V7.2l2-0.5v3.1h3v1.7h-3V17c0,1,0.4,1.4,1.5,1.4c0.6,0,1-0.1,1.5-0.2v1.7
		c-0.6,0.2-1.3,0.3-1.9,0.3c-2,0-3-0.9-3-2.7V11.5z"/>
</g>
<path style="fill:#FFFFFF;" d="M64,6h1v36h-1V6z"/>
<path d="M39.3,21.5c0,0.3,0.1,0.6,0.1,0.9c0,3.7-4.5,4.4-7.6,4.4c-12.1,0-21.2-7.5-21.2-9.9c0-0.2,0-0.3,0.1-0.5l-0.9,2.3
	c-0.2,0.6-0.4,1.2-0.4,1.8c0,4.5,10.2,11.4,21.9,11.4c5.2,0,9.1-2,9.1-5.5c-0.1-0.9-0.2-1.7-0.4-2.5L39.3,21.5z"/>
<path style="fill:#EE0000;" d="M31.8,26.8c3.1,0,7.7-0.6,7.7-4.4c0-0.3,0-0.6-0.1-0.9l-1.8-8.1c-0.4-1.8-0.8-2.6-3.9-4.1
	C31.1,8,25.9,6,24.3,6c-1.5,0-1.9,1.9-3.6,1.9s-2.9-1.4-4.5-1.4c-1.5,0-2.5,1-3.2,3.1c0,0-2.1,5.9-2.4,6.8c0,0.2-0.1,0.3-0.1,0.5
	C10.5,19.2,19.6,26.7,31.8,26.8 M39.9,23.9c0.2,0.8,0.4,1.7,0.4,2.5c0,3.5-3.9,5.4-9.1,5.4C19.5,31.9,9.3,25,9.3,20.5
	c0-0.6,0.1-1.2,0.4-1.8c-4.2,0.2-9.6,1-9.6,5.8C0,32.3,18.6,42,33.4,42c11.3,0,14.2-5.1,14.2-9.2C47.6,29.7,44.8,26.1,39.9,23.9"/>
</svg>
