<svg xmlns="http://www.w3.org/2000/svg" xmlns:xlink="http://www.w3.org/1999/xlink" width="312.94" height="235" viewBox="0 0 312.94 235">
  <defs>
    <clipPath id="clip-path">
      <rect id="Rectangle_2827" data-name="Rectangle 2827" width="37.396" height="37.396" fill="#e00"/>
    </clipPath>
  </defs>
  <g id="brand_creative-01" data-name="brand &amp; creative-01" transform="translate(-138.162 -98.419)">
    <circle id="Ellipse_43" data-name="Ellipse 43" cx="54.589" cy="54.589" r="54.589" transform="translate(155.175 116.425)" fill="#e00" opacity="0.15"/>
    <rect id="Rectangle_2822" data-name="Rectangle 2822" width="176.897" height="134.968" transform="translate(214.609 170.486)" fill="#e00" opacity="0.15"/>
    <rect id="Rectangle_2823" data-name="Rectangle 2823" width="174.865" height="134.538" transform="translate(222.425 162.643)" fill="#fff"/>
    <path id="Path_11039" data-name="Path 11039" d="M528.228,394.8H351.8V258.7H528.228Zm-174.865-1.563h173.3V260.263h-173.3Z" transform="translate(-130.157 -96.381)" fill="#e00"/>
    <g id="Group_1152" data-name="Group 1152" transform="translate(291.823 189.614)" opacity="0.5">
      <rect id="Rectangle_2824" data-name="Rectangle 2824" width="37.396" height="37.396" transform="translate(0 0)" fill="#e00"/>
      <rect id="Rectangle_2825" data-name="Rectangle 2825" width="37.396" height="37.396" transform="translate(0 0)" fill="#e00"/>
      <g id="Group_1151" data-name="Group 1151" transform="translate(0 0)" clip-path="url(#clip-path)">
        <rect id="Rectangle_2826" data-name="Rectangle 2826" width="48.689" height="48.689" transform="translate(0 -1.837)" fill="#e00"/>
      </g>
    </g>
    <rect id="Rectangle_2828" data-name="Rectangle 2828" width="37.396" height="37.396" transform="translate(246.925 189.614)" fill="#e00"/>
    <rect id="Rectangle_2829" data-name="Rectangle 2829" width="37.63" height="37.63" transform="translate(334.924 189.379)" fill="#e00" opacity="0.15"/>
    <g id="Group_1153" data-name="Group 1153" transform="translate(247.128 245.944)" style="isolation: isolate">
      <path id="Path_11040" data-name="Path 11040" d="M425.179,473.727h2.607l8.046,19.625h-2.355l-2.467-6.168h-9.252l-2.5,6.168H417.02Zm5.074,11.607-3.841-9.588-3.9,9.588Z" transform="translate(-417.02 -473.727)" fill="#e00"/>
      <path id="Path_11041" data-name="Path 11041" d="M468.033,497.631c0-2.635,2.159-4.289,5.607-4.289a9.1,9.1,0,0,1,4.121.953v-1.85c0-2.243-1.29-3.392-3.729-3.392a9.313,9.313,0,0,0-4.4,1.234l-.785-1.6a11.933,11.933,0,0,1,5.383-1.4c3.56,0,5.551,1.739,5.551,4.878v9.448h-2.019v-1.374a6.691,6.691,0,0,1-4.542,1.626C470.135,501.865,468.033,500.155,468.033,497.631Zm5.551,2.607a5.6,5.6,0,0,0,4.177-1.626v-2.635a6.863,6.863,0,0,0-4.065-1.121c-2.243,0-3.673,1.065-3.673,2.719C470.023,499.146,471.481,500.239,473.584,500.239Z" transform="translate(-448.099 -481.988)" fill="#e00"/>
    </g>
    <g id="Group_1154" data-name="Group 1154" transform="translate(291.951 246.542)" style="isolation: isolate">
      <path id="Path_11042" data-name="Path 11042" d="M539.437,475.248h3.9l7.6,19.625h-3.616l-1.991-5.5H537.25l-2.019,5.5h-3.5Zm4.907,11.495-3.028-8.355-3.084,8.355Z" transform="translate(-531.728 -475.248)" fill="#e00"/>
      <path id="Path_11043" data-name="Path 11043" d="M584.533,499.184c0-2.523,2.047-4.121,5.355-4.121a8.68,8.68,0,0,1,3.785.869V494.39c0-1.85-1.065-2.8-3.225-2.8a9.717,9.717,0,0,0-4.093,1.094l-1.121-2.3a13.486,13.486,0,0,1,5.831-1.43c3.645,0,5.747,1.85,5.747,5.1v9.168h-3.14v-1.43a5.865,5.865,0,0,1-4.178,1.654C586.552,503.446,584.533,501.708,584.533,499.184Zm5.832,2.047a5.011,5.011,0,0,0,3.308-1.149v-2.3a7.271,7.271,0,0,0-3.252-.673c-1.794,0-2.916.785-2.916,2.019,0,1.289,1.121,2.1,2.86,2.1Z" transform="translate(-563.899 -483.597)" fill="#e00"/>
    </g>
    <g id="Group_1155" data-name="Group 1155" transform="translate(335.248 246.397)" style="isolation: isolate">
      <path id="Path_11044" data-name="Path 11044" d="M654.193,474.881h2.551l3.42,19.625h-2.159L657,488.338h-8.523l-3.561,6.168h-2.383Zm2.523,11.747-1.626-9.812-5.635,9.812Z" transform="translate(-642.529 -474.881)" fill="#e00"/>
    </g>
    <g id="Group_1156" data-name="Group 1156" transform="translate(355.406 252.155)" style="isolation: isolate">
      <path id="Path_11045" data-name="Path 11045" d="M694.115,499.822c0-2.607,2.131-4.4,5.243-4.4a7.738,7.738,0,0,1,4.514,1.318l.365-1.654c.561-2.523-.5-3.813-3.112-3.813a9.4,9.4,0,0,0-3.925,1.037l-.56-1.6a12.427,12.427,0,0,1,4.85-1.121c3.672,0,5.5,2.019,4.766,5.327l-1.906,8.551h-1.99l.281-1.29a6.286,6.286,0,0,1-3.981,1.486C695.938,503.663,694.115,502.149,694.115,499.822Zm5.131,2.3a5.787,5.787,0,0,0,3.729-1.4l.589-2.608a6.257,6.257,0,0,0-4.009-1.177c-2.047,0-3.5,1.121-3.5,2.663,0,1.6,1.177,2.523,3.2,2.523Z" transform="translate(-694.115 -489.589)" fill="#e00"/>
    </g>
    <path id="Path_11046" data-name="Path 11046" d="M284.662,119.371c-13.309-11.64-32.192-18.872-49.28-18.872h-.14a71.935,71.935,0,0,0-51.654,22.01,2.7,2.7,0,1,0,1.174,1.034,70.362,70.362,0,0,1,50.619-21.481c16.727,0,35.216,7.083,48.252,18.485a.782.782,0,1,0,1.029-1.177Z" transform="translate(-25.343 -1.268)" fill="#e00"/>
    <path id="Path_11047" data-name="Path 11047" d="M169.359,291.63a2.68,2.68,0,0,0-1.164.267,70.552,70.552,0,0,1-23.451-82.749,2.7,2.7,0,1,0-1.417-.666,72.117,72.117,0,0,0,23.7,84.493,2.695,2.695,0,1,0,2.331-1.346Z" transform="translate(0 -63.818)" fill="#e00"/>
    <path id="Path_11048" data-name="Path 11048" d="M866.247,381.874a72.34,72.34,0,0,0-34.591-40.5c0-.017,0-.034,0-.052a2.739,2.739,0,1,0-.492,1.563,71.243,71.243,0,0,1,30.308,93.947,73.507,73.507,0,0,1-4.508,7.932,2.738,2.738,0,1,0,1.4.718,75.11,75.11,0,0,0,4.513-7.964,72.342,72.342,0,0,0,3.368-55.645Z" transform="translate(-419.169 -145.047)" fill="#e00"/>
    <path id="Path_11049" data-name="Path 11049" d="M703.866,630.268a2.73,2.73,0,0,0-2.584,3.627,71.362,71.362,0,0,1-97.661-15.917c-.068-.084-.126-.169-.185-.253-.078-.111-.156-.222-.245-.333a.782.782,0,0,0-1.22.977c.068.084.126.169.185.253.078.111.156.222.229.313a72.4,72.4,0,0,0,47.938,28.455,73.905,73.905,0,0,0,10.556.761A72.154,72.154,0,0,0,702.2,635.168a2.734,2.734,0,1,0,1.668-4.9Z" transform="translate(-282.467 -314.732)" fill="#e00"/>
    <path id="Path_11050" data-name="Path 11050" d="M388.383,187.1H275.649v13.364H388.383l22.84-6.721Z" transform="translate(-83.763 -54.028)" fill="#fff"/>
    <rect id="Rectangle_2830" data-name="Rectangle 2830" width="8.362" height="13.364" transform="translate(178.034 133.072)" fill="#f27979"/>
    <rect id="Rectangle_2831" data-name="Rectangle 2831" width="5.979" height="13.364" transform="translate(186.397 133.072)" fill="#ffb0b0"/>
    <rect id="Rectangle_2832" data-name="Rectangle 2832" width="112.539" height="4.377" transform="translate(191.984 142.419)" fill="#e00" opacity="0.7" style="isolation: isolate"/>
    <rect id="Rectangle_2833" data-name="Rectangle 2833" width="6.369" height="4.377" transform="translate(186.397 142.419)" fill="#e00" opacity="0.7" style="isolation: isolate"/>
    <rect id="Rectangle_2834" data-name="Rectangle 2834" width="8.362" height="4.377" transform="translate(178.034 142.419)" fill="#e00" opacity="0.7" style="isolation: isolate"/>
    <path id="Path_11051" data-name="Path 11051" d="M411.793,106.107c-5.36-6.211-8.675-8.506-10.75-7.435-3.544,1.828-1.141,12.8,3.237,30.65,1.541,6.286,3.136,12.785,4.041,17.914.948,5.367-.013,6.684-.67,6.992-.762.356-3.331.426-10.715-6.613-4.208-4.011-7.883-8.36-7.92-8.4a.776.776,0,0,0-.461-.262l-22.761-6.62c-.008,0-.017,0-.025,0a.776.776,0,0,0-.11-.018c-.02,0-.039-.005-.059-.006l-.022,0H238.994a.774.774,0,0,0-.774.774v13.364a.774.774,0,0,0,.774.774H365.58a.767.767,0,0,0,.2-.029c.007,0,.014,0,.021,0L388.15,140.6c1,1.157,4.161,4.762,7.7,8.138,5.044,4.81,8.721,7.176,11.168,7.176a3.021,3.021,0,0,0,1.3-.271c1.914-.9,2.42-3.734,1.547-8.679-.915-5.179-2.515-11.7-4.063-18.015-1.686-6.875-3.43-13.985-4.312-19.438-1.254-7.754-.226-9.192.274-9.45.572-.3,2.582-.2,8.85,7.067,10.914,12.647,16.115,21.87,18.556,27.379,2.642,5.962,2.706,8.974,2.707,9a.781.781,0,0,0,.781.779h0a.781.781,0,0,0,.779-.784C433.434,143,433.15,130.854,411.793,106.107ZM246.582,145.662h-6.815V133.845h6.815Zm5.979,0H248.13V133.845h4.431Zm112.245,0h-110.7V133.845h110.7Zm13.611-3.81-12.063,3.55V134.1l12.063,3.508Z" transform="translate(-60.959 0)" fill="#e00"/>
  </g>
</svg>
